<?xml version="1.0" encoding="UTF-8"?>
<svg id="Capa_1" data-name="Capa 1" xmlns="http://www.w3.org/2000/svg" viewBox="0 0 1002.39 735.27">
  <defs>
    <style>
      .cls-1, .cls-2 {
        fill: #fef6c9;
      }

      .cls-3 {
        font-size: 45.57px;
      }

      .cls-3, .cls-4 {
        font-family: Ebrima-Bold, Ebrima;
        font-weight: 700;
      }

      .cls-2, .cls-5, .cls-6 {
        stroke: #40120f;
        stroke-miterlimit: 10;
      }

      .cls-4 {
        font-size: 28.92px;
      }

      .cls-7 {
        fill: #a42317;
      }

      .cls-8, .cls-5 {
        fill: #ddd;
      }

      .cls-6 {
        fill: #c9c8c8;
      }
    </style>
  </defs>
  <path class="cls-2" d="M191.18,400.42c5.96-32.55,74.06-47.89,90.38-29.94,3.62,3.98,10.8,15.89,11.01,30.24,0,.25,0,.45,0,.61,0,25.35-18.1,46.71-50.82,46.71-5.42,0-25.88-.02-39.79-16.3-2.29-2.68-13.5-16.45-10.78-31.33ZM242.47,426.56c13.76,0,22.57-10.02,22.57-25.35s-8.81-25.47-22.57-25.47-23.78,9.9-23.78,25.47,9.54,25.35,23.78,25.35Z"/>
  <path class="cls-6" d="M134.19,299.88H59.6v14.71h905.62v-14.71h-76.69l-9.75-28.05-8.82-26.34-4.62-12.09c-14.14-33.86-45.14-94.79-108.65-146.96C657.69,5.15,547.19.55,512.4.5c-31.77.31-156.14,5.02-257.7,95.36-69.16,61.53-99.2,137.38-104.84,152.16-7.88,20.64-12.69,38.65-15.68,51.86Z"/>
  <path class="cls-2" d="M163.78,295.08c7.57-29.28,36.44-125.92,131.85-198.5C387.73,26.52,484.53,22.48,515.37,22.44c25.88-.34,151.75.69,251.15,98.77,67.09,66.2,87.71,142.66,94.51,175.36-6.15.1-12.3.21-18.44.31-7.29-31.03-28.92-103.9-94.9-166.25-92.88-87.77-205.84-90.64-232.31-90.62-27.05-.4-129.12,1.29-220.46,77.58-79.63,66.5-103.76,150.14-110.68,178.78-6.82-.43-13.63-.86-20.45-1.29Z"/>
  <path class="cls-2" d="M195.12,296.88h634.56c-6.97-30.39-26.57-96.12-84.64-153.63-91.2-90.32-207.48-91.22-231.59-90.89-27.09-.01-126.73,3.19-214.77,78.58-71.92,61.58-95.92,136.94-103.56,165.94Z"/>
  <path class="cls-5" d="M102.13,477.96h815.27l-1.06,18.9c-4.74,3.65-9.89,7.35-15.45,11.03-9.2,6.08-18.08,11.12-26.35,15.31-21.45,22.02-42.9,44.05-64.36,66.07-19.27,24.58-49.29,56.77-92.89,84.89-74.6,48.12-147.99,57.94-185.98,60.23-34.85,1.55-98.3-.23-169.65-30-78.99-32.96-127.65-83.53-150.53-110.82-7.18-6.72-15.52-15.8-23.29-27.6-4.82-7.32-8.54-14.34-11.41-20.65-25.17-16.12-50.35-32.24-75.52-48.36.41-6.34.81-12.67,1.22-19.01Z"/>
  <path class="cls-2" d="M217.09,495.02h114.52c13.51,15.47,37.76,39.25,74.64,57.42,43.09,21.23,82.45,24.46,103.96,24.66,24.28-.66,70.13-5.35,117.71-33.35,26.85-15.81,46.03-34.19,58.79-48.72h114.52c-13.06,27.45-40.21,74.71-92.06,114.78-81.23,62.78-169.13,66.23-198.96,66.06-20.34.59-49.39-.57-82.96-8.97-48.99-12.26-82.05-33.53-100.64-45.72-25.05-16.43-58.66-38.96-86.26-81.05-11.63-17.73-18.87-33.86-23.26-45.1Z"/>
  <path class="cls-2" d="M202.07,501.37c-6.22-.24-12.43-.49-18.65-.73,3.23,7.37,8.02,17.61,14.58,29.41,7.4,13.31,41.01,71.65,104.27,116.96,86.89,62.23,181.44,65.27,212.33,65.07,33.22-.64,127.77-6.85,215.58-75.69,60.45-47.39,90.8-103.38,104.71-134.29-6.44-.36-12.88-.72-19.31-1.07-13.59,28.25-47.06,88.01-115.91,134.93-77.26,52.66-154.34,58.67-185.46,59.4-31.85,0-115.79-4.27-198.5-61.58-66.21-45.88-99.4-103.42-113.64-132.41Z"/>
  <path class="cls-2" d="M177.17,399.51c0,24.99-17.62,44.66-54.8,44.66h-36.46v-89.32h36.46c37.18,0,54.8,19.68,54.8,44.66ZM122.13,423.41c17.62,0,27.88-7.12,27.88-23.9s-10.26-23.9-27.88-23.9h-9.66v47.8h9.66Z"/>
  <path class="cls-2" d="M364.75,444.17l-45.27-72.18h-3.62s11.47,19.43,11.47,37.18v35.01h-25.11v-89.32h33.68l.12-.12v.12l45.39,72.06h3.62s-11.47-18.23-11.47-37.06v-35.01h25.11v89.32h-33.92Z"/>
  <path class="cls-2" d="M533.98,387.68c0,23.06-15.57,32.83-35.97,32.83h-21.49v23.66h-26.56v-89.32h45.63c27.64,0,38.39,16.78,38.39,32.83ZM492.82,400.6c8.33,0,14-2.78,14-12.91,0-8.93-5.67-12.92-14-12.92h-16.29v25.83h16.29Z"/>
  <path class="cls-2" d="M571.64,373.56v16.66h47.8v17.5h-47.8v17.74h47.8v18.71h-74.36v-89.32h74.36v18.71h-47.8Z"/>
  <path class="cls-2" d="M725.79,399.51c0,24.99-17.62,44.66-54.8,44.66h-36.46v-89.32h36.46c37.18,0,54.8,19.68,54.8,44.66ZM670.75,423.41c17.62,0,27.88-7.12,27.88-23.9s-10.26-23.9-27.88-23.9h-9.66v47.8h9.66Z"/>
  <path class="cls-2" d="M822.06,444.17h-28.24c0-18.95-.6-28.97-17.5-28.97h-13.04v28.85h-26.56v-89.2h49.49c27.64,0,34.52,13.64,34.52,25.95,0,16.66-9.78,22.93-22.09,22.93h-9.78v3.62h9.78c24.63,0,23.42,24.02,23.42,36.82ZM781.62,396.49c8.93,0,12.55-5.19,12.55-11.47s-3.86-11.47-12.55-11.47h-18.35v22.93h18.35Z"/>
  <path class="cls-2" d="M830.15,399.27c0-25.59,17.99-47.08,50.58-47.08s50.82,21.49,50.82,47.08-18.1,46.71-50.82,46.71-50.58-21.37-50.58-46.71ZM881.45,424.5c13.76,0,22.57-10.02,22.57-25.35s-8.81-25.47-22.57-25.47-23.78,9.9-23.78,25.47,9.54,25.35,23.78,25.35Z"/>
  <path class="cls-1" d="M203.15,430.87c-11.5-9.15-16.51-24.14-12.72-37.9,4.19-15.22,18.37-26.11,34.72-26.37,16.64-10.96,35.47-13.27,48.4-5.06,2.88,1.83,6.73,4.98,10.07,10.47-5.03,6.2-9.55,11.05-12.96,14.51-3.42,3.47-6.12,5.97-10.88,10.37-6.93,6.4-10.4,9.6-13.89,12.44-5.72,4.66-12.41,10.1-22.08,14.72-4.62,2.21-11.58,5.02-20.66,6.83Z"/>
  <text class="cls-3" transform="translate(359.53 603.59) rotate(33.25)"><tspan x="0" y="0">S</tspan></text>
  <text class="cls-3" transform="translate(382.75 618.72) rotate(27.05)"><tspan x="0" y="0">T</tspan></text>
  <text class="cls-3" transform="translate(408.69 631.91) rotate(20.21)"><tspan x="0" y="0">R</tspan></text>
  <text class="cls-3" transform="translate(438.86 642.71) rotate(13.59)"><tspan x="0" y="0">E</tspan></text>
  <text class="cls-3" transform="translate(464.47 648.79) rotate(7.64)"><tspan x="0" y="0">E</tspan></text>
  <text class="cls-3" transform="translate(490.64 652.25) rotate(1.47)"><tspan x="0" y="0">T</tspan></text>
  <text class="cls-3" transform="translate(519.01 652.62) rotate(-3.32)"><tspan x="0" y="0"> </tspan></text>
  <text class="cls-3" transform="translate(533.12 651.95) rotate(-7.77)"><tspan x="0" y="0">F</tspan></text>
  <text class="cls-3" transform="translate(559.12 648.59) rotate(-14.9)"><tspan x="0" y="0">O</tspan></text>
  <text class="cls-3" transform="translate(595.26 638.74) rotate(-23.22)"><tspan x="0" y="0">O</tspan></text>
  <text class="cls-3" transform="translate(629.48 623.79) rotate(-31.2)"><tspan x="0" y="0">D</tspan></text>
  <polygon class="cls-5" points="33.45 413.87 21.26 404.86 8.93 413.67 13.73 399.3 1.53 390.29 16.69 390.41 21.49 376.03 26.06 390.49 41.22 390.61 28.88 399.42 33.45 413.87"/>
  <polygon class="cls-5" points="993.08 413.75 980.89 404.74 968.55 413.55 973.35 399.18 961.16 390.17 976.32 390.29 981.12 375.91 985.69 390.36 1000.84 390.49 988.51 399.3 993.08 413.75"/>
  <g>
    <path class="cls-7" d="M515.59,185.64l-2.73,49.66c10.63.12,18.94-1.88,24.33-3.63,18.88-6.1,30.3-18.18,37.07-25.34,7.59-8.02,11.8-14.96,14.25-19.04,4.15-6.92,7.3-12.3,8.38-20.12.79-5.65.2-10.42-.42-13.56-2.82-5.62-6.19-8.47-9.2-10-15.86-8.08-44.78,8.62-71.68,42.03Z"/>
    <path class="cls-7" d="M515.55,185.87c-.89,16.47-1.78,32.94-2.68,49.42-8.4-.42-14.96-2.12-19.3-3.56-18.81-6.21-30.49-18.78-36.87-25.64-7.52-8.08-11.69-15.06-14.1-19.16-4.09-6.96-7.2-12.35-8.23-20.18-.74-5.66-.12-10.43.53-13.56,2.86-5.6,6.26-8.42,9.28-9.93,15.92-7.95,44.72,8.97,71.36,42.6Z"/>
  </g>
  <text class="cls-4" transform="translate(332.73 239.06)"><tspan x="0" y="0">ESTD</tspan></text>
  <text class="cls-4" transform="translate(622.69 238.51)"><tspan x="0" y="0">2025</tspan></text>
  <path class="cls-8" d="M190.85,388.67l.04-2.99c-.51-7.81-1.03-15.63-1.54-23.44.55-2.66,1.11-5.32,1.66-7.98,1.71-2.76,3.42-5.53,5.13-8.29,4.01-1.97,8.02-3.94,12.03-5.91,7.79-2.19,15.58-4.37,23.37-6.56,2.71-.66,5.42-1.32,8.12-1.98l6.14-.58c1.4.45,2.8.91,4.2,1.36,1.31,1.27,2.62,2.54,3.93,3.81.67,1.33,1.35,2.67,2.02,4,1.21,2.53,2.41,5.05,3.62,7.58.65,1.24,1.3,2.49,1.94,3.73,1.48-.3,2.95-.6,4.43-.89,2.43,0,4.86,0,7.29,0,.79-.15,2.89-.41,4.57.84.24.18.46.38.64.59.61.29,1.23.59,1.84.88.86.46,2.6,1.56,3.68,3.68.37.73.58,1.43.7,2.02.07,1.11.14,2.21.21,3.32.03.76.07,1.52.1,2.28-.07.86-.14,1.73-.21,2.59-.21.86-.41,1.73-.62,2.59-.38.97-.76,1.94-1.14,2.9l-.73,1.45c-.41.66-.83,1.31-1.24,1.97-.93,1.18-1.86,2.37-2.78,3.55-.52.6-1.38,1.58-2.47,2.76-6.88,7.47-11.93,11.15-19.63,17.94-2.25,1.98-5.61,5.01-9.64,8.92-2.21,1.66-4.42,3.32-6.63,4.98-3.11,2.32-6.22,4.63-9.33,6.95-3.63,1.8-7.26,3.59-10.88,5.39l-5.8,1.62c-.55.34-1.14.67-1.79.97-2.89,1.37-5.66,1.74-7.74,1.79-3.37.13-6.74.26-10.11.39-1.68-.47-3.37-.93-5.05-1.4-2.49-1.67-4.98-3.34-7.46-5.01-1.19-2.57-2.38-5.13-3.58-7.7.1-2.24.21-4.48.31-6.73.79-2.54,1.58-5.08,2.37-7.62,3.34-4.59,6.69-9.17,10.03-13.76Z"/>
  <g>
    <path d="M201.45,341.75c2-.93,5.17-1.83,7.38-2.53,2.9-.91,6.16-1.9,9.56-2.88,7.23-2.08,15.08-4.14,21.35-5.44,15.33-3.16,15.98,9.65,22.34,20.05,5.14-1.33,9.28-1.91,14.43-.35,3.06.93,5.33,2.51,6.88,4.51.28.36,1.33,1.75,2.01,3.91,1.71,5.42-.44,10.73-1.09,12.33-5.16,12.71-28.09,29.14-28.09,29.14-14.97,13.34-25.9,23.82-46.06,29.21-13.76,3.68-29.96,2.55-32.75-14.34-1.77-10.71,7.3-19.43,13.2-27.35-.62-6.65-1.95-15.11-1.64-23.11.28-7.22,1.88-14.08,6.52-18.92,1.61-1.68,3.58-3.11,5.98-4.23ZM201.03,343.63c-3.9,2.12-8.07,5.96-8.53,10.61-.22,2.25.14,6.23,2.95,6.52,6.78.7,23.51-12.66,29.81-16.59,5.47-3.41,13.12-6.42,17.98-10.25.77-.61,1.54-1.02,1.79-2.08-.59-1.48-18.33,4.42-20.5,5-7.01,1.88-17.36,3.44-23.5,6.78ZM191.51,355.25c-1.82,2.94-1.7,6.35-1.71,9.65-.03,8.73,1.71,17.77,1.98,26.52.74,2.73,8.87,1.61,11.09,1.32,23.03-3.02,48.81-14.47,61.95-34.18-1.75-3.03-3.75-6.04-5.31-9.17-2.23-4.46-6.92-18.4-13.13-17.78-.39.04.15.76-.19,1.21-3.38,4.47-12.66,7.67-17.76,10.67-9.14,5.39-20.39,15.76-30.54,18.26-4.92,1.21-5.8-2.47-6.37-6.5ZM269.24,350.91l-6.3,1.38c-.12.26,2.24,3.95,2.75,4.46.58.59,1.45,0,2.28,1.31.98,1.53,3.73,5.87,4.25,7.3,2.63,7.27-9.58,18.57-14.7,22.67-13.87,11.08-31.45,17.61-49.08,19.2-5.74.52-13.27,1.42-17.05-3.85.18-3.05-1.15-6.66-1.3-9.47-.09-1.7,1.95-3.42.44-4.7-6.55,10.6-16.51,19.31-9.56,32.54,5.14,9.8,17.25,9.54,26.67,7.19,24.26-6.06,39.82-21.99,57.39-38.54,6.12-5.77,15.97-13.91,18.36-21.89.19-.62.95-2.48.08-2.82-3.48,11.78-14.87,17.05-23.13,24.74-2.49,2.32-4.27,5.43-7.22,7.3,6.3-11.78,24.95-18.44,28.51-31.61,3.08-11.4-7.47-13.45-16.21-13.42.55-1.13,3.91-.12,3.84-1.81ZM267.16,358.56c-5.09,5.82-9.89,11.8-16.13,16.53-11.23,8.51-44.58,23.09-58.26,18.35-.82-.28-1.07-1.33-1.8-.99,1.85,5.75-1.42,11.23,5.78,13.53,6.14,1.97,25.53-2.05,31.98-4.17,13.35-4.39,38.95-18.41,42.46-33.19.98-4.14-3.37-6.01-4.02-10.05Z"/>
    <g>
      <path d="M232.4,347.43l-7.2,6.28c1.38-2.66,4.47-5.12,7.2-6.28Z"/>
      <polygon points="236.73 349.68 229.04 356.16 234.34 350.89 236.73 349.68"/>
    </g>
  </g>
</svg>